<svg xmlns="http://www.w3.org/2000/svg" viewBox="0 0 96 96" width="96" height="96" fill="none">
<g transform="translate(48 50)">
<rect x="-4.0" y="-27.0" width="8.0" height="10.0" rx="3.0" fill="#C7CEDB" stroke="#3E4A63" stroke-width="3.5" transform="rotate(0 0 0)"/><rect x="-4.0" y="-27.0" width="8.0" height="10.0" rx="3.0" fill="#C7CEDB" stroke="#3E4A63" stroke-width="3.5" transform="rotate(45 0 0)"/><rect x="-4.0" y="-27.0" width="8.0" height="10.0" rx="3.0" fill="#C7CEDB" stroke="#3E4A63" stroke-width="3.5" transform="rotate(90 0 0)"/><rect x="-4.0" y="-27.0" width="8.0" height="10.0" rx="3.0" fill="#C7CEDB" stroke="#3E4A63" stroke-width="3.5" transform="rotate(135 0 0)"/><rect x="-4.0" y="-27.0" width="8.0" height="10.0" rx="3.0" fill="#C7CEDB" stroke="#3E4A63" stroke-width="3.5" transform="rotate(180 0 0)"/><rect x="-4.0" y="-27.0" width="8.0" height="10.0" rx="3.0" fill="#C7CEDB" stroke="#3E4A63" stroke-width="3.5" transform="rotate(225 0 0)"/><rect x="-4.0" y="-27.0" width="8.0" height="10.0" rx="3.0" fill="#C7CEDB" stroke="#3E4A63" stroke-width="3.5" transform="rotate(270 0 0)"/><rect x="-4.0" y="-27.0" width="8.0" height="10.0" rx="3.0" fill="#C7CEDB" stroke="#3E4A63" stroke-width="3.5" transform="rotate(315 0 0)"/><circle cx="0.0" cy="0.0" r="17.0" fill="#C7CEDB" stroke="#3E4A63" stroke-width="3.5" /><circle cx="0.0" cy="0.0" r="7.0" fill="#1C2A4E" stroke="#3E4A63" stroke-width="3.5" /><path d="M 26 -33 L 28 -28 L 33 -26 L 28 -24 L 26 -19 L 24 -24 L 19 -26 L 24 -28 Z" fill="#FFFFFF" stroke="#3E4A63" stroke-width="2.1" stroke-linecap="round" stroke-linejoin="round" />
</g>
</svg>
