<svg xmlns="http://www.w3.org/2000/svg" viewBox="0 0 1080 1920" width="1080" height="1920" fill="none">
<defs><linearGradient id="sky" x1="0" y1="0" x2="0" y2="1"><stop offset="0" stop-color="#0B1026"/><stop offset="1" stop-color="#1C2A4E"/></linearGradient></defs><rect width="1080" height="1920" fill="url(#sky)"/><circle cx="357" cy="243" r="3.0" fill="#CFE0FF" opacity="0.38"/><circle cx="874" cy="159" r="3.0" fill="#CFE0FF" opacity="0.38"/><circle cx="548" cy="75" r="2.2" fill="#CFE0FF" opacity="0.60"/><circle cx="270" cy="836" r="1.6" fill="#CFE0FF" opacity="0.85"/><circle cx="149" cy="350" r="3.0" fill="#CFE0FF" opacity="0.70"/><circle cx="84" cy="887" r="1.6" fill="#CFE0FF" opacity="0.94"/><circle cx="68" cy="1291" r="2.2" fill="#CFE0FF" opacity="0.60"/><circle cx="582" cy="865" r="3.0" fill="#CFE0FF" opacity="0.84"/><circle cx="208" cy="881" r="3.0" fill="#CFE0FF" opacity="0.46"/><circle cx="121" cy="1074" r="3.0" fill="#CFE0FF" opacity="0.39"/><circle cx="234" cy="1027" r="2.2" fill="#CFE0FF" opacity="0.82"/><circle cx="504" cy="1387" r="2.2" fill="#CFE0FF" opacity="0.53"/><circle cx="846" cy="1055" r="1.6" fill="#CFE0FF" opacity="0.40"/><circle cx="332" cy="753" r="2.2" fill="#CFE0FF" opacity="0.79"/><circle cx="319" cy="1471" r="1.6" fill="#CFE0FF" opacity="0.66"/><circle cx="192" cy="526" r="2.2" fill="#CFE0FF" opacity="0.60"/><circle cx="1020" cy="135" r="3.0" fill="#CFE0FF" opacity="0.69"/><circle cx="930" cy="484" r="3.0" fill="#CFE0FF" opacity="0.56"/><circle cx="537" cy="1199" r="1.6" fill="#CFE0FF" opacity="0.85"/><circle cx="1002" cy="722" r="3.0" fill="#CFE0FF" opacity="0.39"/><circle cx="780" cy="478" r="3.0" fill="#CFE0FF" opacity="0.95"/><circle cx="875" cy="441" r="2.2" fill="#CFE0FF" opacity="0.88"/><circle cx="381" cy="1412" r="2.2" fill="#CFE0FF" opacity="0.45"/><circle cx="142" cy="107" r="2.2" fill="#CFE0FF" opacity="0.43"/><circle cx="278" cy="599" r="2.2" fill="#CFE0FF" opacity="0.40"/><circle cx="487" cy="833" r="1.6" fill="#CFE0FF" opacity="0.84"/><circle cx="919" cy="432" r="2.2" fill="#CFE0FF" opacity="0.94"/><circle cx="730" cy="583" r="1.6" fill="#CFE0FF" opacity="0.44"/><circle cx="203" cy="363" r="1.6" fill="#CFE0FF" opacity="0.36"/><circle cx="884" cy="290" r="2.2" fill="#CFE0FF" opacity="0.35"/><circle cx="456" cy="566" r="3.0" fill="#CFE0FF" opacity="0.54"/><circle cx="151" cy="1292" r="3.0" fill="#CFE0FF" opacity="0.74"/><circle cx="789" cy="696" r="3.0" fill="#CFE0FF" opacity="0.83"/><circle cx="428" cy="610" r="1.6" fill="#CFE0FF" opacity="0.64"/><circle cx="436" cy="302" r="1.6" fill="#CFE0FF" opacity="0.61"/><circle cx="134" cy="909" r="1.6" fill="#CFE0FF" opacity="0.35"/><circle cx="177" cy="170" r="2.2" fill="#CFE0FF" opacity="0.72"/><circle cx="93" cy="328" r="2.2" fill="#CFE0FF" opacity="0.44"/><circle cx="282" cy="534" r="2.2" fill="#CFE0FF" opacity="0.63"/><circle cx="140" cy="742" r="2.2" fill="#CFE0FF" opacity="0.64"/><circle cx="344" cy="233" r="3.0" fill="#CFE0FF" opacity="0.56"/><circle cx="295" cy="1247" r="1.6" fill="#CFE0FF" opacity="0.66"/><circle cx="233" cy="1429" r="2.2" fill="#CFE0FF" opacity="0.44"/><circle cx="585" cy="60" r="3.0" fill="#CFE0FF" opacity="0.53"/><circle cx="689" cy="155" r="2.2" fill="#CFE0FF" opacity="0.66"/><circle cx="965" cy="546" r="1.6" fill="#CFE0FF" opacity="0.67"/><circle cx="830" cy="508" r="1.6" fill="#CFE0FF" opacity="0.72"/><circle cx="840" cy="1142" r="1.6" fill="#CFE0FF" opacity="0.83"/><circle cx="871" cy="1115" r="1.6" fill="#CFE0FF" opacity="0.47"/><circle cx="532" cy="1102" r="1.6" fill="#CFE0FF" opacity="0.82"/><circle cx="511" cy="307" r="3.0" fill="#CFE0FF" opacity="0.92"/><circle cx="485" cy="1407" r="2.2" fill="#CFE0FF" opacity="0.92"/><circle cx="399" cy="346" r="1.6" fill="#CFE0FF" opacity="0.63"/><circle cx="371" cy="734" r="3.0" fill="#CFE0FF" opacity="0.85"/><circle cx="519" cy="986" r="3.0" fill="#CFE0FF" opacity="0.40"/><circle cx="707" cy="1366" r="3.0" fill="#CFE0FF" opacity="0.80"/><circle cx="517" cy="284" r="3.0" fill="#CFE0FF" opacity="0.55"/><circle cx="853" cy="1458" r="2.2" fill="#CFE0FF" opacity="0.63"/><circle cx="793" cy="146" r="1.6" fill="#CFE0FF" opacity="0.45"/><circle cx="152" cy="244" r="2.2" fill="#CFE0FF" opacity="0.83"/><circle cx="172" cy="1243" r="2.2" fill="#CFE0FF" opacity="0.74"/><circle cx="384" cy="832" r="1.6" fill="#CFE0FF" opacity="0.36"/><circle cx="851" cy="1095" r="1.6" fill="#CFE0FF" opacity="0.67"/><circle cx="991" cy="662" r="1.6" fill="#CFE0FF" opacity="0.85"/><circle cx="239" cy="393" r="2.2" fill="#CFE0FF" opacity="0.65"/><circle cx="814" cy="502" r="3.0" fill="#CFE0FF" opacity="0.60"/><circle cx="156" cy="1367" r="2.2" fill="#CFE0FF" opacity="0.89"/><circle cx="709" cy="1226" r="3.0" fill="#CFE0FF" opacity="0.60"/><circle cx="974" cy="762" r="3.0" fill="#CFE0FF" opacity="0.44"/><circle cx="551" cy="1312" r="1.6" fill="#CFE0FF" opacity="0.72"/><circle cx="827" cy="242" r="1.6" fill="#CFE0FF" opacity="0.63"/><circle cx="774" cy="844" r="2.2" fill="#CFE0FF" opacity="0.76"/><circle cx="572" cy="734" r="1.6" fill="#CFE0FF" opacity="0.88"/><circle cx="79" cy="303" r="1.6" fill="#CFE0FF" opacity="0.81"/><circle cx="548" cy="851" r="1.6" fill="#CFE0FF" opacity="0.62"/><circle cx="657" cy="768" r="3.0" fill="#CFE0FF" opacity="0.47"/><circle cx="308" cy="772" r="2.2" fill="#CFE0FF" opacity="0.65"/><circle cx="278" cy="794" r="2.2" fill="#CFE0FF" opacity="0.90"/><circle cx="948" cy="320" r="2.2" fill="#CFE0FF" opacity="0.43"/><circle cx="146" cy="674" r="1.6" fill="#CFE0FF" opacity="0.75"/><circle cx="465" cy="335" r="2.2" fill="#CFE0FF" opacity="0.82"/><circle cx="953" cy="249" r="3.0" fill="#CFE0FF" opacity="0.74"/><circle cx="401" cy="395" r="1.6" fill="#CFE0FF" opacity="0.93"/><circle cx="248" cy="1430" r="2.2" fill="#CFE0FF" opacity="0.88"/><circle cx="189" cy="1008" r="1.6" fill="#CFE0FF" opacity="0.45"/><circle cx="469" cy="783" r="2.2" fill="#CFE0FF" opacity="0.60"/><circle cx="391" cy="156" r="2.2" fill="#CFE0FF" opacity="0.36"/><circle cx="596" cy="672" r="1.6" fill="#CFE0FF" opacity="0.58"/><circle cx="558" cy="457" r="1.6" fill="#CFE0FF" opacity="0.42"/><circle cx="975" cy="358" r="1.6" fill="#CFE0FF" opacity="0.40"/><path d="M 160 230 L 163.0 237.0 L 170 240 L 163.0 243.0 L 160 250 L 157.0 243.0 L 150 240 L 157.0 237.0 Z" fill="#EAF2FF" stroke="none" stroke-width="0" stroke-linecap="round" stroke-linejoin="round" /><path d="M 880 412 L 882.4 417.6 L 888 420 L 882.4 422.4 L 880 428 L 877.6 422.4 L 872 420 L 877.6 417.6 Z" fill="#EAF2FF" stroke="none" stroke-width="0" stroke-linecap="round" stroke-linejoin="round" /><path d="M 540 143 L 542.1 147.9 L 547 150 L 542.1 152.1 L 540 157 L 537.9 152.1 L 533 150 L 537.9 147.9 Z" fill="#EAF2FF" stroke="none" stroke-width="0" stroke-linecap="round" stroke-linejoin="round" /><path d="M 930 1171 L 932.7 1177.3 L 939 1180 L 932.7 1182.7 L 930 1189 L 927.3 1182.7 L 921 1180 L 927.3 1177.3 Z" fill="#EAF2FF" stroke="none" stroke-width="0" stroke-linecap="round" stroke-linejoin="round" /><circle cx="380" cy="2150" r="640" fill="#5D9DE8"/><circle cx="380" cy="2150" r="640" fill="none" stroke="#BFE0FF" stroke-width="18" opacity="0.5"/><ellipse cx="210.0" cy="1660.0" rx="120.0" ry="62.0" fill="#8FE3B8" stroke="none" stroke-width="0" opacity="0.9"/><ellipse cx="560.0" cy="1590.0" rx="90.0" ry="48.0" fill="#8FE3B8" stroke="none" stroke-width="0" opacity="0.9"/><ellipse cx="410.0" cy="1760.0" rx="70.0" ry="36.0" fill="#B8F0D4" stroke="none" stroke-width="0" opacity="0.8"/>
</svg>
