<svg xmlns="http://www.w3.org/2000/svg" width="512" height="512" viewBox="0 0 512 512">
  <defs>
    <radialGradient id="space" cx="50%" cy="42%" r="75%">
      <stop offset="0%" stop-color="#1a1e45" />
      <stop offset="60%" stop-color="#0d0f26" />
      <stop offset="100%" stop-color="#060714" />
    </radialGradient>
  </defs>
  <rect width="512" height="512" fill="url(#space)" />
  <circle cx="59" cy="103" r="2" fill="#ffffff" opacity="0.35" />
  <circle cx="196" cy="314" r="3" fill="#ffffff" opacity="0.6499999999999999" />
  <circle cx="333" cy="45" r="4" fill="#ffffff" opacity="0.44999999999999996" />
  <circle cx="470" cy="256" r="2" fill="#ffffff" opacity="0.75" />
  <circle cx="127" cy="467" r="3" fill="#ffffff" opacity="0.55" />
  <circle cx="264" cy="198" r="4" fill="#ffffff" opacity="0.35" />
  <circle cx="401" cy="409" r="2" fill="#ffffff" opacity="0.6499999999999999" />
  <circle cx="58" cy="140" r="3" fill="#ffffff" opacity="0.44999999999999996" />
  <circle cx="195" cy="351" r="4" fill="#ffffff" opacity="0.75" />
  <circle cx="332" cy="82" r="2" fill="#ffffff" opacity="0.55" />
  <circle cx="469" cy="293" r="3" fill="#ffffff" opacity="0.35" />
  <circle cx="126" cy="24" r="4" fill="#ffffff" opacity="0.6499999999999999" />
  <circle cx="263" cy="235" r="2" fill="#ffffff" opacity="0.44999999999999996" />
  <circle cx="400" cy="446" r="3" fill="#ffffff" opacity="0.75" />
  <circle cx="57" cy="177" r="4" fill="#ffffff" opacity="0.55" />
  <circle cx="194" cy="388" r="2" fill="#ffffff" opacity="0.35" />
  <circle cx="331" cy="119" r="3" fill="#ffffff" opacity="0.6499999999999999" />
  <circle cx="468" cy="330" r="4" fill="#ffffff" opacity="0.44999999999999996" />
  <g transform="translate(20.5 74.0) scale(2.141)">
  <line x1="110" y1="30" x2="110" y2="56" stroke="#8b93bd" stroke-width="4" />
  <circle cx="110" cy="24" r="7" fill="#34d399" />

  <rect x="58" y="86" width="14" height="10" fill="#8b93bd" />
  <rect x="8" y="70" width="52" height="42" rx="5" fill="#3b4aa0" stroke="#5c6fd6" stroke-width="2" />
  <line x1="25" y1="72" x2="25" y2="110" stroke="#5c6fd6" stroke-width="1.5" />
  <line x1="42" y1="72" x2="42" y2="110" stroke="#5c6fd6" stroke-width="1.5" />
  <line x1="10" y1="91" x2="58" y2="91" stroke="#5c6fd6" stroke-width="1.5" />

  <rect x="148" y="86" width="14" height="10" fill="#8b93bd" />
  <rect x="160" y="70" width="52" height="42" rx="5" fill="#3b4aa0" stroke="#5c6fd6" stroke-width="2" />
  <line x1="177" y1="72" x2="177" y2="110" stroke="#5c6fd6" stroke-width="1.5" />
  <line x1="194" y1="72" x2="194" y2="110" stroke="#5c6fd6" stroke-width="1.5" />
  <line x1="162" y1="91" x2="210" y2="91" stroke="#5c6fd6" stroke-width="1.5" />

  <rect x="72" y="56" width="76" height="70" rx="16" fill="#e8eaf6" stroke="#b9c0e4" stroke-width="2" />
  <path d="M72 100 L148 88 L148 110 A16 16 0 0 1 132 126 L88 126 A16 16 0 0 1 72 110 Z" fill="#c9d0ef" />

  <g fill="#1f2547">
    <circle cx="94" cy="84" r="5.5" />
    <circle cx="126" cy="84" r="5.5" />
  </g>
  <circle cx="85" cy="97" r="5" fill="#f9a8d4" opacity="0.6" />
  <circle cx="135" cy="97" r="5" fill="#f9a8d4" opacity="0.6" />
  <path d="M106 101 q4 4 8 0" stroke="#1f2547" stroke-width="3" stroke-linecap="round" fill="none" />
</g>
</svg>