<svg xmlns="http://www.w3.org/2000/svg" viewBox="0 0 256 256" width="256" height="256" fill="none">
<g transform="translate(128 130) scale(0.82)">
<g id="Panel_L" transform="rotate(2.0 -69.0 16.0)">
<rect x="-123.0" y="-3.0" width="54.0" height="38.0" rx="17.1" fill="#8FC1EF" stroke="#3E4A63" stroke-width="3.5" /><rect x="-119.0" y="4.2" width="44.0" height="23.6" rx="11.4" fill="#CDE4F9" stroke="none" stroke-width="0" />
</g><g id="Panel_R" transform="rotate(-2.0 69.0 16.0)">
<rect x="69.0" y="-3.0" width="54.0" height="38.0" rx="17.1" fill="#8FC1EF" stroke="#3E4A63" stroke-width="3.5" /><rect x="75.0" y="4.2" width="44.0" height="23.6" rx="11.4" fill="#CDE4F9" stroke="none" stroke-width="0" />
</g><ellipse cx="0.0" cy="75.0" rx="22.0" ry="10.0" fill="#97A0B3" stroke="#3E4A63" stroke-width="3.5" id="Thruster"/><g id="Body">
<rect x="-75.0" y="-49.0" width="150.0" height="122.0" rx="34.0" fill="#FFF7EF" stroke="#3E4A63" stroke-width="3.5" /><rect x="-37.5" y="24.2" width="75.0" height="41.5" rx="20.4" fill="#FFE3C9" stroke="none" stroke-width="0" />
</g><g id="Antenna" transform="translate(0.0 -45.0) rotate(0.0)">
<ellipse cx="0.0" cy="0.0" rx="9.0" ry="6.0" fill="#7C87A0" stroke="#3E4A63" stroke-width="3.5" /><g id="Antenna_Tip" transform="rotate(16.0 0 0)">
<line x1="0.0" y1="0.0" x2="0.0" y2="-42.0" stroke="#3E4A63" stroke-width="5.0" stroke-linecap="round"/><circle cx="0.0" cy="-42.0" r="15.0" fill="#FFCE59" stroke="#3E4A63" stroke-width="3.5" />
</g>
</g><g id="Face">
<g id="StatusLight">
<ellipse cx="-31.0" cy="-1.8" rx="19.3" ry="21.0" fill="#FFB13D" stroke="#3E4A63" stroke-width="3.5" /><ellipse cx="-37.3" cy="-8.1" rx="7.1" ry="6.3" fill="#FFFFFF" stroke="none" stroke-width="0" /><ellipse cx="-23.4" cy="4.1" rx="3.1" ry="2.7" fill="#FFFFFF" stroke="none" stroke-width="0" /><path d="M -53.0 -24.9 h 44.1 v 19.4 a 22.1 12.8 0 0 1 -44.1 0 Z" fill="#FFF7EF"/><path d="M -51.0 -5.3 Q -31.0 -0.0 -11.1 -5.3" fill="none" stroke="#3E4A63" stroke-width="3.15" stroke-linecap="round" stroke-linejoin="round" /><ellipse cx="31.0" cy="-1.8" rx="19.3" ry="21.0" fill="#FFB13D" stroke="#3E4A63" stroke-width="3.5" /><ellipse cx="24.7" cy="-8.1" rx="7.1" ry="6.3" fill="#FFFFFF" stroke="none" stroke-width="0" /><ellipse cx="38.6" cy="4.1" rx="3.1" ry="2.7" fill="#FFFFFF" stroke="none" stroke-width="0" /><path d="M 8.9 -24.9 h 44.1 v 19.4 a 22.1 12.8 0 0 1 -44.1 0 Z" fill="#FFF7EF"/><path d="M 11.1 -5.3 Q 31.0 -0.0 51.0 -5.3" fill="none" stroke="#3E4A63" stroke-width="3.15" stroke-linecap="round" stroke-linejoin="round" />
</g><ellipse cx="0.0" cy="32.2" rx="5.5" ry="4.0" fill="#46536B" stroke="#3E4A63" stroke-width="2.4499999999999997" /><ellipse cx="-66.0" cy="9.8" rx="10.5" ry="7.6" fill="#FFB1C1" stroke="none" stroke-width="0" /><ellipse cx="66.0" cy="9.8" rx="10.5" ry="7.6" fill="#FFB1C1" stroke="none" stroke-width="0" />
</g>
</g>
</svg>
