<svg xmlns="http://www.w3.org/2000/svg" viewBox="0 0 256 256" width="256" height="256" fill="none">
<g transform="translate(128 130) scale(0.82)">
<g id="Panel_L" transform="rotate(-52.0 -82.0 16.0)">
<rect x="-144.0" y="-6.0" width="62.0" height="44.0" rx="19.8" fill="#8FC1EF" stroke="#3E4A63" stroke-width="3.5" /><rect x="-140.0" y="2.4" width="52.0" height="27.3" rx="13.2" fill="#CDE4F9" stroke="none" stroke-width="0" /><g id="Panel_L_Outer" transform="rotate(-70.0 -147.0 16.0)">
<rect x="-197.0" y="-2.5" width="50.0" height="37.0" rx="16.7" fill="#8FC1EF" stroke="#3E4A63" stroke-width="3.5" /><rect x="-194.0" y="4.6" width="42.0" height="22.9" rx="11.4" fill="#CDE4F9" stroke="none" stroke-width="0" />
</g>
</g><g id="Panel_R" transform="rotate(52.0 82.0 16.0)">
<rect x="82.0" y="-6.0" width="62.0" height="44.0" rx="19.8" fill="#8FC1EF" stroke="#3E4A63" stroke-width="3.5" /><rect x="88.0" y="2.4" width="52.0" height="27.3" rx="13.2" fill="#CDE4F9" stroke="none" stroke-width="0" /><g id="Panel_R_Outer" transform="rotate(70.0 147.0 16.0)">
<rect x="147.0" y="-2.5" width="50.0" height="37.0" rx="16.7" fill="#8FC1EF" stroke="#3E4A63" stroke-width="3.5" /><rect x="152.0" y="4.6" width="42.0" height="22.9" rx="11.4" fill="#CDE4F9" stroke="none" stroke-width="0" />
</g>
</g><ellipse cx="0.0" cy="89.0" rx="22.0" ry="10.0" fill="#97A0B3" stroke="#3E4A63" stroke-width="3.5" id="Thruster"/><g id="Body">
<rect x="-88.0" y="-63.0" width="176.0" height="150.0" rx="40.0" fill="#FFF7EF" stroke="#3E4A63" stroke-width="3.5" /><rect x="-44.0" y="27.0" width="88.0" height="51.0" rx="24.0" fill="#FFE3C9" stroke="none" stroke-width="0" />
</g><g id="Turret_Head" transform="translate(82 -57) rotate(6)">
<ellipse cx="0.0" cy="10.0" rx="16.0" ry="9.0" fill="#7C87A0" stroke="#3E4A63" stroke-width="3.5" /><rect x="-15.0" y="-14.0" width="30.0" height="24.0" rx="9.0" fill="#C9A0F0" stroke="#3E4A63" stroke-width="3.5" /><g id="Laser_Barrel">
<rect x="10.0" y="-8.0" width="26.0" height="13.0" rx="6.5" fill="#C7CEDB" stroke="#3E4A63" stroke-width="3.5" /><circle cx="38.0" cy="-1.5" r="8.5" fill="#FF8FA6" stroke="#3E4A63" stroke-width="3.5" />
</g>
</g><g id="Antenna_L" transform="translate(-51.0 -59.0) rotate(-14.0)">
<ellipse cx="0.0" cy="0.0" rx="9.0" ry="6.0" fill="#7C87A0" stroke="#3E4A63" stroke-width="3.5" /><g id="Antenna_L_Tip" transform="rotate(-58.0 0 0)">
<line x1="0.0" y1="0.0" x2="0.0" y2="-46.0" stroke="#3E4A63" stroke-width="5.0" stroke-linecap="round"/><circle cx="0.0" cy="-46.0" r="16.0" fill="#FFCE59" stroke="#3E4A63" stroke-width="3.5" />
</g>
</g><g id="Antenna_R" transform="translate(51.0 -59.0) rotate(14.0)">
<ellipse cx="0.0" cy="0.0" rx="9.0" ry="6.0" fill="#7C87A0" stroke="#3E4A63" stroke-width="3.5" /><g id="Antenna_R_Tip" transform="rotate(58.0 0 0)">
<line x1="0.0" y1="0.0" x2="0.0" y2="-46.0" stroke="#3E4A63" stroke-width="5.0" stroke-linecap="round"/><circle cx="0.0" cy="-46.0" r="16.0" fill="#FFCE59" stroke="#3E4A63" stroke-width="3.5" />
</g>
</g><g id="Face">
<g id="StatusLight">
<ellipse cx="-37.0" cy="0.0" rx="22.1" ry="24.0" fill="#FF8A3D" stroke="#3E4A63" stroke-width="3.5" /><ellipse cx="-44.2" cy="-7.2" rx="8.2" ry="7.2" fill="#FFFFFF" stroke="none" stroke-width="0" /><ellipse cx="-28.4" cy="6.7" rx="3.6" ry="3.1" fill="#FFFFFF" stroke="none" stroke-width="0" /><path d="M -62.2 -26.4 h 50.4 v 32.7 a 25.2 9.6 0 0 1 -50.4 0 Z" fill="#FFF7EF"/><path d="M -59.8 6.0 Q -37.0 12.0 -14.2 6.0" fill="none" stroke="#3E4A63" stroke-width="3.15" stroke-linecap="round" stroke-linejoin="round" /><ellipse cx="37.0" cy="0.0" rx="22.1" ry="24.0" fill="#FF8A3D" stroke="#3E4A63" stroke-width="3.5" /><ellipse cx="29.8" cy="-7.2" rx="8.2" ry="7.2" fill="#FFFFFF" stroke="none" stroke-width="0" /><ellipse cx="45.6" cy="6.7" rx="3.6" ry="3.1" fill="#FFFFFF" stroke="none" stroke-width="0" /><path d="M 11.8 -26.4 h 50.4 v 32.7 a 25.2 9.6 0 0 1 -50.4 0 Z" fill="#FFF7EF"/><path d="M 14.2 6.0 Q 37.0 12.0 59.8 6.0" fill="none" stroke="#3E4A63" stroke-width="3.15" stroke-linecap="round" stroke-linejoin="round" />
</g><ellipse cx="0.0" cy="38.0" rx="4.5" ry="3.2" fill="#46536B" stroke="#3E4A63" stroke-width="2.4499999999999997" /><ellipse cx="-75.0" cy="13.2" rx="12.0" ry="8.6" fill="#FFB1C1" stroke="none" stroke-width="0" /><ellipse cx="75.0" cy="13.2" rx="12.0" ry="8.6" fill="#FFB1C1" stroke="none" stroke-width="0" />
</g>
</g>
</svg>
