<svg xmlns="http://www.w3.org/2000/svg" viewBox="0 0 96 96" width="96" height="96" fill="none">
<g transform="translate(48 48)">
<circle cx="6.0" cy="0.0" r="30.0" fill="none" stroke="#7FE0A8" stroke-width="5.0" /><path d="M 36.0 0.0 Q 6 0 6.000000000000002 30.0" fill="none" stroke="#7FE0A8" stroke-width="2.4499999999999997" stroke-linecap="round" stroke-linejoin="round" /><path d="M 27.213203435596427 21.213203435596423 Q 6 0 -15.213203435596423 21.213203435596427" fill="none" stroke="#7FE0A8" stroke-width="2.4499999999999997" stroke-linecap="round" stroke-linejoin="round" /><path d="M 6.000000000000002 30.0 Q 6 0 -24.0 3.67394039744206e-15" fill="none" stroke="#7FE0A8" stroke-width="2.4499999999999997" stroke-linecap="round" stroke-linejoin="round" /><path d="M -15.213203435596423 21.213203435596427 Q 6 0 -15.21320343559643 -21.213203435596423" fill="none" stroke="#7FE0A8" stroke-width="2.4499999999999997" stroke-linecap="round" stroke-linejoin="round" /><path d="M -24.0 3.67394039744206e-15 Q 6 0 5.999999999999995 -30.0" fill="none" stroke="#7FE0A8" stroke-width="2.4499999999999997" stroke-linecap="round" stroke-linejoin="round" /><path d="M -15.21320343559643 -21.213203435596423 Q 6 0 27.21320343559642 -21.21320343559643" fill="none" stroke="#7FE0A8" stroke-width="2.4499999999999997" stroke-linecap="round" stroke-linejoin="round" /><path d="M 5.999999999999995 -30.0 Q 6 0 36.0 -7.34788079488412e-15" fill="none" stroke="#7FE0A8" stroke-width="2.4499999999999997" stroke-linecap="round" stroke-linejoin="round" /><path d="M 27.21320343559642 -21.21320343559643 Q 6 0 27.21320343559643 21.21320343559642" fill="none" stroke="#7FE0A8" stroke-width="2.4499999999999997" stroke-linecap="round" stroke-linejoin="round" /><circle cx="27.2" cy="21.2" r="4.5" fill="#7FE0A8" stroke="#3E4A63" stroke-width="2.4499999999999997" /><circle cx="-15.2" cy="21.2" r="4.5" fill="#7FE0A8" stroke="#3E4A63" stroke-width="2.4499999999999997" /><circle cx="-15.2" cy="-21.2" r="4.5" fill="#7FE0A8" stroke="#3E4A63" stroke-width="2.4499999999999997" /><circle cx="27.2" cy="-21.2" r="4.5" fill="#7FE0A8" stroke="#3E4A63" stroke-width="2.4499999999999997" />
</g>
</svg>
